# xmcd CD database file
# Copyright (C) 1995 Ti Kan
#
# Track frame offsets:
#	182
#	11840
#	23467
#	35285
#	46687
#	60210
#	74302
#	85402
#	96277
#	109520
#	124415
#	138282
#	152502
#	166027
#
# Disc length: 2437 seconds
#
# Revision: 1
# Processed by: cddbd v1.4b41PL1 Copyright (c) Steve Scherf et al.
# Submitted via: xmcd 1.4
#
DISCID=a009830e
DTITLE=Willie Nelson - Blame it on the times
DYEAR=1900
DGENRE=
TTITLE0=Night Life
TTITLE1=I'll stay around
TTITLE2=Happiness lives next door
TTITLE3=Country Willie
TTITLE4=No tomorrow in sight
TTITLE5=Rainy day blues
TTITLE6=I'm gonna loose a lot of teardrops
TTITLE7=Go away
TTITLE8=You'll always have someone
TTITLE9=And so will you my love
TTITLE10=Home is where you're happy
TTITLE11=So much to do
TTITLE12=Undo the right
TTITLE13=I let my mind wonder
EXTD=
EXTT0=
EXTT1=
EXTT2=
EXTT3=
EXTT4=
EXTT5=
EXTT6=
EXTT7=
EXTT8=
EXTT9=
EXTT10=
EXTT11=
EXTT12=
EXTT13=
PLAYORDER=
